<svg width="30" height="29" viewBox="0 0 30 29" fill="none" xmlns="http://www.w3.org/2000/svg">
<path d="M11.9552 12.1625C10.3113 12.1625 8.90411 11.5671 7.7335 10.3761C6.56289 9.18523 5.97759 7.7536 5.97759 6.08126C5.97759 4.40891 6.56289 2.97728 7.7335 1.78637C8.90411 0.595457 10.3113 0 11.9552 0C13.599 0 15.0062 0.595457 16.1768 1.78637C17.3474 2.97728 17.9328 4.40891 17.9328 6.08126C17.9328 7.7536 17.3474 9.18523 16.1768 10.3761C15.0062 11.5671 13.599 12.1625 11.9552 12.1625ZM27.4969 28.5819L23.7609 24.7811C23.2379 25.0852 22.6775 25.3386 22.0797 25.5413C21.4819 25.744 20.8468 25.8453 20.1743 25.8453C18.3064 25.8453 16.7188 25.18 15.4117 23.8492C14.1046 22.5184 13.4506 20.9033 13.4496 19.0039C13.4496 17.1035 14.1036 15.488 15.4117 14.1572C16.7198 12.8264 18.3073 12.1615 20.1743 12.1625C22.0423 12.1625 23.6304 12.8279 24.9385 14.1587C26.2466 15.4895 26.9001 17.1046 26.8991 19.0039C26.8991 19.6881 26.7995 20.3342 26.6002 20.9423C26.401 21.5505 26.1519 22.1206 25.853 22.6527L29.589 26.4535C29.863 26.7322 30 27.0869 30 27.5177C30 27.9484 29.863 28.3032 29.589 28.5819C29.3151 28.8606 28.9664 29 28.543 29C28.1196 29 27.7709 28.8606 27.4969 28.5819ZM20.1743 22.8047C21.2204 22.8047 22.1046 22.4373 22.8269 21.7025C23.5492 20.9677 23.9103 20.0682 23.9103 19.0039C23.9103 17.9397 23.5492 17.0402 22.8269 16.3054C22.1046 15.5706 21.2204 15.2031 20.1743 15.2031C19.1283 15.2031 18.2441 15.5706 17.5218 16.3054C16.7995 17.0402 16.4384 17.9397 16.4384 19.0039C16.4384 20.0682 16.7995 20.9677 17.5218 21.7025C18.2441 22.4373 19.1283 22.8047 20.1743 22.8047ZM2.98879 24.325C2.16688 24.325 1.46302 24.0271 0.877213 23.4311C0.29141 22.8351 -0.000993727 22.1196 2.53718e-06 21.2844V20.1062C2.53718e-06 19.2446 0.211709 18.4465 0.635121 17.7117C1.05853 16.9768 1.64384 16.4194 2.39104 16.0393C3.66127 15.3805 5.0934 14.8231 6.68742 14.367C8.28145 13.9109 10.0498 13.6828 11.9925 13.6828C11.4944 14.4683 11.1143 15.3111 10.8523 16.2111C10.5903 17.1111 10.4598 18.0421 10.4608 19.0039C10.4608 19.9415 10.5918 20.8602 10.8538 21.7603C11.1158 22.6603 11.4949 23.5152 11.991 24.325H2.98879Z" fill="black" fill-opacity="0.5"/>
</svg>
